<svg xmlns="http://www.w3.org/2000/svg" viewBox="0 0 328.07 62.63"><defs><style>.cls-1{fill:#fff;}</style></defs><g id="Layer_2" data-name="Layer 2"><g id="Layer_1-2" data-name="Layer 1"><path class="cls-1" d="M57.53,62.63l-.09-41.52L36.86,55.47H31.67L11.09,21.65v41H0V0H9.57L34.44,41.51,58.87,0h9.57l.09,62.63Z"/><path class="cls-1" d="M122.39,48.13H91.08L84.9,62.63h-12L101.1,0h11.45l28.27,62.63H128.65ZM118.54,39,106.73,11.63,95,39Z"/><path class="cls-1" d="M200.76,0V62.63h-9.57L156.65,20.22V62.63H145.11V0h9.58l34.53,42.41V0Z"/><path class="cls-1" d="M263.39,0V62.63h-9.58L219.28,20.22V62.63H207.74V0h9.57l34.54,42.41V0Z"/><path class="cls-1" d="M303.56,40.53v22.1H291.93V40.71L267.32,0h12.44L298.1,30.51,316.62,0h11.45Z"/></g></g></svg>