<svg xmlns="http://www.w3.org/2000/svg" viewBox="0 0 340.24 64.42"><defs><style>.cls-1{fill:#fff;}</style></defs><g id="Layer_2" data-name="Layer 2"><g id="Layer_1-2" data-name="Layer 1"><path class="cls-1" d="M47.24,31.49h11v25A34.88,34.88,0,0,1,47,62.36a43.3,43.3,0,0,1-13.24,2.06,35.77,35.77,0,0,1-17.27-4.16A31,31,0,0,1,4.38,48.76,31.66,31.66,0,0,1,0,32.21,31.66,31.66,0,0,1,4.38,15.66,30.88,30.88,0,0,1,16.51,4.16,36.2,36.2,0,0,1,33.91,0,38.14,38.14,0,0,1,48.22,2.59,28.24,28.24,0,0,1,59.05,10.2l-7.34,7.16A23.54,23.54,0,0,0,34.44,10.2,24.38,24.38,0,0,0,22.68,13a20.25,20.25,0,0,0-8,7.79,22.36,22.36,0,0,0-2.91,11.45,22,22,0,0,0,2.91,11.27,20.78,20.78,0,0,0,8,7.87,23.58,23.58,0,0,0,11.67,2.87A25.27,25.27,0,0,0,47.24,51Z"/><path class="cls-1" d="M110.49,49H79.18L73,63.52H61L89.2.9h11.45l28.27,62.62H116.75Zm-3.85-9.13L94.83,12.53,83.11,39.9Z"/><path class="cls-1" d="M174.19,63.52,161.4,45.18a23.9,23.9,0,0,1-2.42.09H144.84V63.52H133.21V.9H159a34.66,34.66,0,0,1,14.18,2.68,20.61,20.61,0,0,1,9.26,7.69,21.51,21.51,0,0,1,3.22,11.9,21.28,21.28,0,0,1-3.44,12.17,20.53,20.53,0,0,1-9.89,7.6l14.4,20.58ZM170,14q-3.93-3.23-11.54-3.22h-13.6v25h13.6q7.6,0,11.54-3.27t3.94-9.26C173.92,19.18,172.61,16.1,170,14Z"/><path class="cls-1" d="M206.8,60.26a30.71,30.71,0,0,1-12-11.5,31.92,31.92,0,0,1-4.34-16.55,31.66,31.66,0,0,1,4.38-16.55,31,31,0,0,1,12-11.5A35.3,35.3,0,0,1,224,0a35.94,35.94,0,0,1,14,2.68,28.67,28.67,0,0,1,10.73,7.79l-7.51,7.07a21.93,21.93,0,0,0-16.73-7.34A23.43,23.43,0,0,0,213,13a20.34,20.34,0,0,0-8,7.83,22.55,22.55,0,0,0-2.86,11.36,22.58,22.58,0,0,0,2.86,11.36,20.34,20.34,0,0,0,8,7.83,23.43,23.43,0,0,0,11.54,2.82,21.81,21.81,0,0,0,16.73-7.43L248.8,54A28.5,28.5,0,0,1,238,61.73a36,36,0,0,1-14.09,2.69A35.3,35.3,0,0,1,206.8,60.26Z"/><path class="cls-1" d="M256.32.9H268V63.52H256.32Z"/><path class="cls-1" d="M321.81,49H290.49l-6.17,14.49h-12L300.51.9H312l28.28,62.62H328.07ZM318,39.9,306.15,12.53,294.43,39.9Z"/></g></g></svg>